<?xml version="1.0" encoding="UTF-8" standalone="no"?>
<svg
   version="1.0"
   width="60.000000pt"
   height="60.000000pt"
   viewBox="0 0 60.000000 60.000000"
   preserveAspectRatio="xMidYMid meet"
   id="svg8"
   sodipodi:docname="01086dd595e0182c10efdded296e026a.svg"
   xmlns:inkscape="http://www.inkscape.org/namespaces/inkscape"
   xmlns:sodipodi="http://sodipodi.sourceforge.net/DTD/sodipodi-0.dtd"
   xmlns="http://www.w3.org/2000/svg"
   xmlns:svg="http://www.w3.org/2000/svg">
  <defs
     id="defs12" />
  <sodipodi:namedview
     id="namedview10"
     pagecolor="#ffffff"
     bordercolor="#666666"
     borderopacity="1.0"
     inkscape:pageshadow="2"
     inkscape:pageopacity="0.0"
     inkscape:pagecheckerboard="0"
     inkscape:document-units="pt" />
  <metadata
     id="metadata2">
Created by potrace 1.16, written by Peter Selinger 2001-2019
</metadata>
  <g
     transform="translate(0.000000,60.000000) scale(0.011719,-0.011719)"
     fill="#000000"
     stroke="none"
     id="g6">
    <path
       d="M389 5097 c-43 -29 -69 -80 -69 -137 0 -92 331 -4276 340 -4306 25 -74 4 -66 962 -370 621 -197 907 -284 938 -284 31 0 317 87 938 284 958 304 937 296 962 370 9 30 340 4214 340 4306 0 57 -26 108 -69 137 l-34 23 -2137 0 -2137 0 -34 -23z m3591 -939 c0 -29 -28 -398 -36 -465 l-5 -53 -1080 0 -1079 0 0 -34 c0 -19 14 -154 30 -301 17 -147 30 -271 30 -276 0 -5 407 -9 1025 -9 970 0 1025 -1 1025 -17 0 -27 -131 -1687 -133 -1689 -10 -6 -1186 -374 -1197 -374 -11 0 -1186 367 -1197 374 -1 1 -15 179 -32 396 -17 217 -33 416 -36 443 l-6 47 311 0 310 0 0 -218 0 -218 328 -87 c180 -48 334 -87 341 -87 13 0 653 170 657 174 1 0 11 141 23 311 12 171 24 329 27 353 l5 42 -1010 0 c-556 0 -1011 2 -1011 4 0 2 -29 378 -65 834 -36 457 -65 840 -65 851 l0 21 1420 0 1420 0 0 -22z"
       id="path4" />
  </g>
</svg>
