<svg width="273" height="282" viewBox="0 0 273 282" fill="none" xmlns="http://www.w3.org/2000/svg">
<g filter="url(#filter0_f_1_18)">
<ellipse cx="136.468" cy="173.273" rx="59.2491" ry="31.5654" fill="#01319D" fill-opacity="0.3"/>
</g>
<path d="M157.967 0.8255C150.298 0.8255 144.08 7.04265 144.08 14.7126V45.3279H188.583V0.8255H157.967Z" fill="#D4E7F4"/>
<path d="M188.583 52.2715H144.08V75.7636H188.583V52.2715Z" fill="#D4E7F4"/>
<path d="M212.282 96.7739V89.6507C212.282 81.9807 206.064 75.7636 198.394 75.7636H195.526V52.2715H240.029V82.8868C240.029 90.5568 233.811 96.7739 226.141 96.7739H212.282Z" fill="#D4E7F4"/>
<path d="M195.526 0.8255H226.141C233.811 0.8255 240.029 7.04265 240.029 14.7126V45.3279H195.526V0.8255Z" fill="#D4E7F4"/>
<mask id="mask0_1_18" style="mask-type:alpha" maskUnits="userSpaceOnUse" x="144" y="0" width="97" height="97">
<path d="M157.967 0.8255C150.298 0.8255 144.08 7.04265 144.08 14.7126V45.3279H188.583V0.8255H157.967Z" fill="#D4E7F4"/>
<path d="M188.583 52.2715H144.08V75.7636H188.583V52.2715Z" fill="#D4E7F4"/>
<path d="M212.282 96.7739V89.6507C212.282 81.9807 206.064 75.7636 198.394 75.7636H195.526V52.2715H240.029V82.8868C240.029 90.5568 233.811 96.7739 226.141 96.7739H212.282Z" fill="#D4E7F4"/>
<path d="M195.526 0.8255H226.141C233.811 0.8255 240.029 7.04265 240.029 14.7126V45.3279H195.526V0.8255Z" fill="#D4E7F4"/>
</mask>
<g mask="url(#mask0_1_18)">
<rect x="110.027" y="103.631" width="159.942" height="23.9426" transform="rotate(-45.9637 110.027 103.631)" fill="white" fill-opacity="0.5"/>
<rect x="150.637" y="112.841" width="159.942" height="8.30774" transform="rotate(-45.9637 150.637 112.841)" fill="white" fill-opacity="0.5"/>
</g>
<rect x="67.606" y="82.707" width="137.733" height="75.1336" rx="13.8871" fill="url(#paint0_linear_1_18)"/>
<rect x="67.606" y="82.707" width="137.733" height="75.1336" rx="13.8871" fill="url(#paint1_linear_1_18)"/>
<rect x="74.5502" y="89.6505" width="59.0201" height="68.19" rx="6.94355" stroke="#01319D" stroke-width="2"/>
<rect x="139.372" y="89.6505" width="59.0201" height="68.19" rx="6.94355" stroke="#01319D" stroke-width="2"/>
<rect x="67.606" y="141.707" width="137.733" height="34.5156" fill="#01319D"/>
<rect x="51.2978" y="113.52" width="32.6192" height="76.7943" rx="16.3096" fill="url(#paint2_linear_1_18)"/>
<rect x="56.2588" y="121.083" width="22.701" height="61.0985" rx="11.3505" stroke="#DF9400" stroke-width="2"/>
<rect x="188.583" y="113.52" width="32.6192" height="76.7943" rx="16.3096" fill="url(#paint3_linear_1_18)"/>
<rect x="193.541" y="121.083" width="22.701" height="61.0985" rx="11.3505" stroke="#DF9400" stroke-width="2"/>
<defs>
<filter id="filter0_f_1_18" x="0.840172" y="65.3283" width="271.256" height="215.889" filterUnits="userSpaceOnUse" color-interpolation-filters="sRGB">
<feFlood flood-opacity="0" result="BackgroundImageFix"/>
<feBlend mode="normal" in="SourceGraphic" in2="BackgroundImageFix" result="shape"/>
<feGaussianBlur stdDeviation="38.1895" result="effect1_foregroundBlur_1_18"/>
</filter>
<linearGradient id="paint0_linear_1_18" x1="136.472" y1="73.8574" x2="136.472" y2="157.841" gradientUnits="userSpaceOnUse">
<stop stop-color="#7FCEFB"/>
<stop offset="1" stop-color="#01319D"/>
</linearGradient>
<linearGradient id="paint1_linear_1_18" x1="136.472" y1="73.8574" x2="136.472" y2="154.546" gradientUnits="userSpaceOnUse">
<stop stop-color="#00D1FF"/>
<stop offset="1" stop-color="#01319D"/>
</linearGradient>
<linearGradient id="paint2_linear_1_18" x1="67.6074" y1="138.27" x2="67.6074" y2="190.314" gradientUnits="userSpaceOnUse">
<stop stop-color="#FFCC00"/>
<stop offset="1" stop-color="#FFA800"/>
</linearGradient>
<linearGradient id="paint3_linear_1_18" x1="204.892" y1="138.27" x2="204.892" y2="190.314" gradientUnits="userSpaceOnUse">
<stop stop-color="#FFCC00"/>
<stop offset="1" stop-color="#FFA800"/>
</linearGradient>
</defs>
</svg>
