<?xml version="1.0" standalone="no"?>
<!DOCTYPE svg PUBLIC "-//W3C//DTD SVG 20010904//EN"
 "http://www.w3.org/TR/2001/REC-SVG-20010904/DTD/svg10.dtd">
<svg version="1.0" xmlns="http://www.w3.org/2000/svg"
 width="47.000000pt" height="47.000000pt" viewBox="0 0 47.000000 47.000000"
 preserveAspectRatio="xMidYMid meet">
<metadata>
Created by potrace 1.16, written by Peter Selinger 2001-2019
</metadata>
<g transform="translate(0.000000,47.000000) scale(0.002916,-0.004292)"
fill="#000000" stroke="none">
<path d="M0 5475 l0 -5475 8060 0 8060 0 0 5475 0 5475 -8060 0 -8060 0 0
-5475z m11277 5300 c226 -37 471 -154 708 -340 44 -35 98 -82 120 -105 38 -39
24 -33 -291 122 -408 202 -503 241 -584 240 -143 -2 -426 -137 -748 -355 -252
-171 -393 -418 -772 -1352 -251 -618 -368 -872 -511 -1110 -120 -200 -189
-364 -189 -449 0 -44 28 -99 70 -137 22 -20 40 -43 40 -51 0 -30 -62 -107
-137 -170 -106 -88 -192 -150 -438 -315 -336 -226 -370 -259 -418 -414 -84
-271 -104 -624 -37 -684 27 -25 60 -3 131 87 71 90 115 128 149 128 22 0 23
-2 17 -67 -3 -41 -20 -107 -42 -168 -129 -347 -147 -424 -164 -700 -11 -172
-19 -201 -76 -290 -43 -69 -49 -89 -30 -109 18 -18 47 -23 175 -31 171 -10
279 -46 687 -231 317 -144 394 -174 544 -219 196 -58 281 -111 320 -200 14
-31 18 -55 14 -79 -21 -108 -201 -195 -407 -196 -96 0 -158 13 -276 58 -51 19
-96 32 -99 28 -12 -12 26 -138 52 -173 93 -121 260 -163 651 -163 l231 0 70
-35 c121 -60 231 -202 204 -261 -18 -40 -50 -45 -184 -33 -189 17 -317 -2
-301 -46 13 -33 90 -65 178 -75 47 -6 125 -14 174 -20 117 -13 193 -51 281
-140 121 -123 243 -207 355 -244 51 -17 71 -14 44 7 -45 35 -74 147 -46 175
41 41 210 -40 316 -151 109 -116 148 -262 94 -349 -32 -52 -105 -85 -213 -97
-48 -6 -103 -17 -122 -25 -59 -24 -126 -95 -203 -212 -103 -159 -152 -187
-252 -144 -70 30 -119 87 -182 209 -93 180 -164 255 -295 310 -88 37 -186 57
-345 71 -330 29 -470 78 -690 242 -146 109 -194 132 -321 153 -184 31 -309 88
-317 143 -5 33 22 38 114 19 138 -29 169 -23 381 64 147 61 187 69 244 45 55
-22 95 -26 114 -12 16 12 16 14 1 45 -51 98 -145 146 -286 145 -109 -1 -182
-28 -256 -95 -50 -45 -58 -49 -105 -49 -71 0 -156 47 -244 135 -89 89 -128
164 -133 255 -3 55 -1 69 18 92 32 41 82 50 263 46 183 -3 193 1 130 61 -121
114 -457 281 -601 298 -38 4 -52 1 -73 -15 -66 -53 -64 -234 5 -469 13 -46 20
-80 15 -78 -17 11 -79 123 -112 205 -57 138 -100 294 -163 587 -3 16 -25 33
-72 57 -184 93 -411 276 -677 548 -496 506 -545 563 -700 816 -21 34 -40 61
-42 59 -1 -2 28 -79 67 -171 38 -92 70 -171 70 -175 0 -4 -33 -15 -72 -25
-127 -30 -334 -140 -518 -277 -93 -68 -91 -76 -33 101 74 222 195 493 309 687
86 148 134 203 134 156 0 -28 72 -155 175 -308 263 -393 625 -772 931 -971
103 -68 206 -123 374 -202 99 -46 147 -75 181 -108 37 -37 54 -46 81 -46 45 0
87 22 126 67 42 47 57 78 77 155 18 67 18 84 -4 445 -9 155 4 452 27 638 18
141 18 149 1 239 -31 158 -42 328 -36 522 7 198 22 289 64 381 25 56 28 72 31
217 4 150 -7 288 -29 372 l-11 40 -37 -80 c-71 -149 -203 -300 -341 -389 -132
-86 -238 -118 -385 -118 -170 1 -309 47 -385 129 -140 152 -175 414 -124 939
18 193 18 286 0 310 -13 18 -17 18 -40 6 -48 -26 -145 -162 -211 -296 -165
-334 -294 -882 -360 -1540 -9 -88 -18 -161 -19 -163 -5 -4 -35 195 -46 303
-23 222 -6 556 40 767 91 418 288 798 566 1088 50 52 103 118 119 145 16 28
58 80 93 118 36 37 60 67 54 67 -21 0 -438 -216 -540 -280 -231 -145 -471
-342 -621 -509 -218 -244 -340 -456 -451 -791 -99 -296 -156 -568 -235 -1120
-52 -362 -84 -547 -121 -695 -60 -235 -141 -442 -245 -624 -63 -111 -168 -266
-175 -258 -2 2 5 30 17 63 40 115 127 431 162 589 77 343 104 545 117 870 12
301 29 421 97 690 49 195 130 424 233 665 124 289 298 756 286 767 -2 2 -32
-46 -66 -107 -34 -61 -92 -155 -128 -208 -177 -261 -205 -309 -276 -474 -161
-371 -268 -840 -341 -1493 -28 -246 -62 -468 -95 -611 -21 -93 -80 -278 -86
-272 -1 2 8 46 21 98 14 52 37 165 52 250 28 155 28 156 25 550 -1 217 2 469
8 560 28 424 102 743 230 995 l59 116 -37 -28 c-890 -672 -1682 -1321 -1997
-1637 -240 -240 -268 -302 -137 -300 53 1 76 9 184 61 143 71 391 234 633 416
189 143 170 112 -50 -79 -602 -522 -1241 -849 -1819 -929 -349 -48 -616 -19
-855 95 -127 61 -206 117 -292 207 -214 221 -308 519 -297 931 6 217 46 392
144 642 148 373 391 704 676 918 96 71 227 156 234 150 2 -2 -22 -42 -52 -88
-417 -621 -663 -1302 -615 -1702 15 -132 35 -200 88 -308 39 -80 60 -109 132
-180 95 -93 153 -132 293 -192 144 -62 245 -81 428 -81 176 0 289 19 469 79
201 67 468 217 636 359 537 451 1246 1135 1627 1571 l97 111 268 163 c202 124
322 189 488 266 213 99 221 103 244 146 191 347 439 600 761 776 177 96 442
176 690 207 244 31 556 13 767 -45 53 -14 104 -20 183 -20 242 0 394 89 767
452 170 164 218 204 391 324 576 401 873 614 929 665 119 110 270 182 692 328
269 93 378 127 460 141 77 13 221 11 318 -5z m498 -675 c295 -18 693 -80 760
-119 35 -20 696 -500 1190 -864 375 -277 477 -368 569 -509 97 -149 153 -290
190 -481 l22 -110 60 -21 c120 -44 199 -115 307 -276 96 -143 196 -275 351
-464 72 -87 137 -167 145 -178 14 -19 14 -19 -22 -5 -69 29 -163 101 -281 216
-110 107 -180 183 -454 493 -56 64 -118 123 -136 132 -72 34 -649 161 -783
173 -92 8 -153 -9 -201 -54 -42 -39 -37 -46 38 -58 148 -24 327 -100 445 -188
126 -94 231 -251 269 -403 23 -90 19 -108 -8 -41 -14 32 -37 77 -52 100 -40
62 -159 175 -247 235 -152 105 -416 212 -521 212 -35 0 -45 -5 -69 -35 -51
-64 -185 -115 -302 -115 -73 0 -121 22 -152 70 -44 70 -65 89 -121 112 -49 19
-74 22 -182 22 -105 -1 -140 -5 -215 -28 -177 -52 -325 -145 -464 -291 -192
-202 -245 -389 -128 -452 25 -14 67 -18 204 -23 155 -4 174 -7 200 -26 26 -20
28 -27 27 -85 -2 -110 -59 -236 -118 -261 -27 -11 -31 -9 -55 21 -113 142
-164 167 -335 159 -236 -11 -320 -118 -182 -231 61 -51 96 -119 96 -191 0 -88
-3 -89 -76 -40 -89 60 -211 94 -229 64 -4 -6 17 -36 45 -67 48 -52 90 -119 90
-143 0 -6 -29 -10 -73 -10 -71 0 -73 -1 -92 -32 -11 -18 -25 -46 -32 -63 -17
-43 -15 -157 3 -229 31 -121 133 -308 246 -451 l39 -49 -86 -43 -86 -44 -43
31 c-186 127 -281 360 -261 640 7 106 36 269 61 343 9 26 14 51 11 53 -11 11
-76 -59 -105 -113 -58 -109 -74 -188 -79 -388 -3 -120 0 -214 9 -282 8 -57 11
-99 7 -95 -19 18 -73 176 -91 262 -26 126 -21 398 11 532 47 202 128 397 231
553 84 128 81 150 -38 228 -155 102 -319 336 -330 472 -5 64 11 81 77 78 71
-2 148 -36 290 -129 150 -98 171 -102 184 -39 41 202 82 320 145 425 60 99
121 154 205 186 113 42 301 141 348 182 41 37 46 62 13 62 -22 0 -135 -42
-266 -98 -121 -52 -188 -72 -188 -55 0 6 21 55 46 109 132 283 171 452 101
442 -44 -6 -115 -126 -267 -455 -32 -69 -48 -93 -62 -93 -11 0 -49 18 -85 40
-37 22 -74 41 -82 41 -53 4 -77 -18 -97 -90 -35 -121 -97 -231 -130 -231 -32
0 -38 45 -45 295 -4 138 -12 266 -18 285 -27 87 -58 104 -87 48 -10 -18 -43
-137 -74 -264 -87 -352 -144 -515 -182 -522 -37 -7 -43 39 -42 323 0 317 12
412 99 807 72 326 72 370 -6 353 -81 -18 -188 -177 -253 -377 -74 -227 -88
-333 -121 -938 -14 -256 -26 -481 -28 -500 l-3 -35 -23 50 c-64 138 -135 394
-168 605 -25 163 -25 541 0 695 38 232 105 452 190 620 52 105 88 156 161 233
239 251 616 377 1166 390 30 1 132 -3 225 -8z m1496 -2910 c63 -19 169 -81
202 -118 17 -19 13 -19 -220 -25 -233 -6 -325 -14 -450 -39 -35 -6 -65 -9 -69
-6 -21 21 67 108 156 153 111 58 264 72 381 35z m1583 -515 c55 -8 100 -16
102 -18 1 -1 -79 -2 -179 -2 -195 0 -279 -11 -412 -52 -91 -29 -164 -63 -215
-101 l-34 -26 154 -23 c150 -22 344 -62 336 -70 -2 -2 -59 8 -127 22 -77 16
-174 28 -255 32 -123 5 -134 4 -178 -17 -25 -13 -48 -21 -51 -18 -15 15 31 92
74 124 90 70 265 139 396 157 74 10 299 6 389 -8z m-1030 -266 c48 -13 166
-68 166 -77 0 -4 -48 -20 -108 -36 -253 -68 -513 -180 -591 -257 -80 -77 -90
-39 -25 100 61 132 207 254 334 281 51 10 165 5 224 -11z m-2381 -128 c21 -8
26 -19 32 -66 8 -71 39 -167 70 -221 29 -50 105 -121 139 -130 39 -9 31 -24
-12 -24 -149 0 -269 116 -317 306 -17 69 -11 102 27 128 26 19 29 19 61 7z
m717 -442 c24 -11 59 -31 76 -44 l32 -24 68 33 c38 19 87 39 109 45 53 14 177
14 210 -1 35 -16 32 -38 -6 -38 -18 0 -87 -26 -158 -60 -69 -33 -150 -65 -178
-71 -51 -12 -54 -11 -127 24 -40 21 -79 37 -85 37 -23 0 -12 -84 19 -137 l30
-51 30 28 c31 29 89 48 109 35 6 -3 11 -28 11 -54 0 -87 17 -85 119 13 112
108 172 138 286 144 68 4 84 1 104 -15 47 -38 14 -60 -159 -104 -80 -20 -88
-25 -145 -83 -66 -67 -120 -134 -113 -141 2 -2 37 23 77 56 41 33 92 71 115
84 57 33 147 55 229 55 42 0 79 6 98 16 17 8 42 14 57 12 38 -4 43 -54 9 -90
-33 -36 -84 -48 -202 -48 -117 -1 -151 -11 -237 -72 -72 -52 -188 -160 -188
-176 0 -6 16 -14 35 -18 19 -3 46 -15 60 -26 41 -32 32 -59 -40 -123 -36 -31
-65 -63 -65 -71 0 -8 21 -24 48 -35 85 -37 99 -65 63 -126 -24 -38 -56 -51
-79 -29 -49 44 -177 40 -333 -9 -108 -34 -130 -26 -233 80 -81 83 -126 109
-149 86 -6 -6 -14 -56 -17 -110 -8 -152 -25 -163 -256 -159 -123 1 -169 -2
-259 -21 -120 -25 -351 -92 -485 -140 l-85 -31 30 26 c48 41 221 140 304 175
110 46 195 69 284 76 l78 6 -37 39 c-31 31 -46 38 -79 39 -45 2 -111 16 -81
18 11 0 47 6 81 12 57 10 63 14 79 45 9 19 16 36 16 38 0 9 -141 92 -230 137
-190 94 -385 154 -610 188 -144 22 -106 26 105 11 298 -21 543 -87 678 -182
16 -11 30 -19 31 -17 2 2 6 32 10 66 l7 61 -43 34 c-228 183 -611 278 -1073
266 -207 -5 -169 5 87 23 435 31 830 -55 1064 -232 36 -27 67 -49 68 -47 58
103 112 155 217 208 30 16 74 44 98 64 71 59 112 47 147 -44 21 -56 32 -68 40
-47 3 9 -6 46 -20 82 -21 53 -26 82 -26 155 0 83 2 90 20 90 30 0 130 -142
130 -185 0 -9 -13 -35 -29 -58 -31 -47 -65 -110 -75 -144 -21 -67 93 22 130
102 29 61 30 109 4 175 -30 77 -27 94 30 150 42 43 55 50 87 50 21 0 58 -10
83 -21z m1973 -404 c2 -136 -8 -180 -56 -251 -25 -38 -48 -57 -101 -84 l-69
-35 -136 1 c-150 0 -221 14 -411 78 -86 29 -111 42 -137 72 -59 67 -52 128 17
157 14 5 106 10 205 11 174 1 183 2 267 32 111 40 239 125 320 213 l63 69 18
-72 c12 -47 19 -112 20 -191z m-1040 -55 c42 -20 33 -56 -22 -95 -25 -17 -46
-36 -48 -42 -6 -18 34 -49 80 -62 67 -20 127 -59 144 -96 23 -49 10 -94 -52
-177 -30 -39 -52 -75 -49 -80 3 -4 32 -8 65 -8 l59 0 0 -37 c-1 -92 -71 -111
-225 -63 -97 30 -120 32 -159 16 -29 -12 -42 -27 -69 -83 -37 -77 -50 -84
-142 -72 -33 4 -99 8 -147 8 -78 1 -88 3 -88 19 0 10 42 59 93 108 79 75 96
97 108 139 28 98 4 304 -41 362 -40 52 -23 101 47 131 42 18 75 26 193 46 49
9 225 -1 253 -14z m-7014 -467 c-223 -269 -402 -593 -569 -1028 -51 -132 -117
-288 -147 -346 -49 -98 -122 -199 -144 -199 -4 0 8 28 28 62 104 178 231 489
313 767 28 96 68 211 90 255 73 154 207 336 328 447 52 48 169 139 178 139 2
0 -32 -44 -77 -97z m-1819 20 c18 -24 21 -38 18 -88 -3 -49 -18 -91 -80 -226
-181 -395 -268 -664 -268 -830 0 -118 48 -295 134 -489 25 -57 43 -106 41
-109 -18 -18 -123 78 -200 183 -27 36 -53 66 -58 66 -15 0 -86 -165 -112 -261
-35 -132 -62 -300 -75 -468 -10 -126 -14 -148 -35 -175 -51 -68 -153 -273
-180 -364 -6 -21 -5 -21 22 -11 42 16 169 39 217 39 126 0 82 -90 -57 -115
-101 -19 53 -43 326 -52 l197 -6 35 -71 c46 -93 55 -154 27 -179 -26 -24 -88
-46 -129 -47 -28 0 -33 4 -33 23 0 28 -44 118 -68 140 -17 15 -18 14 -14 -19
6 -47 -13 -87 -60 -130 l-40 -35 -27 43 c-41 64 -91 118 -110 118 -9 0 -34
-11 -56 -25 -22 -13 -51 -30 -65 -37 -14 -7 -37 -21 -52 -31 -43 -29 -82 -14
-155 58 -71 71 -75 86 -48 185 8 30 15 78 15 106 0 76 34 195 89 309 43 92 49
111 55 196 20 279 92 525 247 847 66 136 69 146 69 215 0 103 26 308 60 477
58 289 164 581 267 738 41 61 69 68 103 25z m9501 -158 c275 -36 526 -133 717
-275 95 -70 128 -108 47 -53 -240 162 -609 265 -1004 281 -174 7 -202 17 -134
45 49 21 230 22 374 2z m-1383 -78 c7 -35 -8 -65 -43 -87 -29 -18 -51 -22
-112 -22 -81 1 -103 12 -103 53 0 27 22 38 110 53 45 8 85 17 88 21 13 13 57
0 60 -18z m700 -79 c156 -85 445 -386 624 -648 59 -87 59 -87 -58 44 -103 115
-343 341 -526 494 -69 59 -129 113 -132 120 -9 20 47 14 92 -10z m548 -67
c149 -57 371 -205 514 -340 l65 -62 -55 39 c-124 90 -345 213 -590 330 l-155
74 71 -5 c44 -4 101 -17 150 -36z m-2211 13 l24 -16 -72 -58 c-81 -65 -145
-136 -217 -242 -28 -39 -50 -67 -50 -62 1 24 97 197 146 261 52 67 118 132
137 133 4 0 19 -7 32 -16z m-1185 -114 c56 -110 75 -192 75 -335 0 -97 -5
-147 -19 -195 -33 -116 -35 -106 33 -119 293 -58 625 -7 857 132 l52 30 23
116 c22 105 24 112 32 80 5 -19 27 -92 49 -163 33 -105 38 -130 27 -137 -39
-25 -280 -112 -383 -139 -291 -75 -600 -78 -799 -7 -60 21 -64 25 -119 108
l-57 86 54 56 c92 95 145 227 145 362 0 63 -17 167 -35 220 -11 31 32 -32 65
-95z m3399 -37 c200 -151 415 -385 399 -433 -2 -6 -52 41 -111 104 -124 133
-267 256 -356 306 -98 56 -94 52 -80 83 7 15 17 27 23 27 5 0 62 -39 125 -87z
m-1901 -51 c8 -6 14 -51 17 -148 5 -158 17 -232 45 -287 11 -20 20 -40 20 -42
0 -3 -15 -5 -34 -5 -71 0 -165 106 -202 225 -8 28 -18 94 -21 147 l-6 97 34 9
c42 13 130 14 147 4z m291 -75 c20 -13 69 -32 108 -43 l72 -18 24 22 c31 29
75 28 121 -3 28 -19 50 -25 89 -25 29 0 63 -3 76 -7 21 -5 23 -10 19 -59 -3
-37 -12 -63 -31 -88 -24 -31 -62 -54 -72 -44 -2 2 -7 41 -11 86 l-7 82 -36
-36 c-36 -36 -149 -110 -156 -102 -3 2 -1 27 4 56 4 29 5 52 2 52 -4 0 -30
-16 -58 -35 -29 -19 -56 -35 -60 -35 -4 0 -26 18 -49 41 l-41 41 -7 -29 c-25
-103 -26 -104 -47 -92 -36 19 -59 86 -59 175 0 44 3 84 8 88 12 13 73 -2 111
-27z m915 -143 c12 -11 14 -26 10 -57 -22 -151 -66 -262 -135 -340 -82 -94
-79 -99 -79 157 l0 225 48 15 c64 20 137 20 156 0z m-618 -317 c16 -3 46 -8
67 -12 48 -8 48 -18 -3 -152 -22 -59 -38 -108 -36 -110 6 -7 108 121 135 169
14 26 30 48 35 48 4 0 39 -21 77 -46 78 -51 135 -119 145 -170 22 -120 -66
-200 -246 -226 -151 -21 -291 21 -374 112 -94 106 -86 249 26 431 l40 65 52
-52 c31 -30 64 -54 82 -57z m804 -77 c0 -34 -27 -92 -63 -136 -13 -16 -36 -51
-51 -78 -51 -88 -86 -107 -86 -45 0 61 142 289 180 289 16 0 20 -7 20 -30z
m-1214 -147 c6 -38 24 -97 40 -133 25 -56 28 -76 27 -146 -3 -149 -46 -194
-113 -117 -41 47 -81 133 -88 188 -5 51 19 140 60 218 42 79 61 76 74 -10z
m-190 -225 c27 -180 64 -251 142 -273 29 -8 38 -16 40 -37 4 -31 -28 -59 -96
-84 -26 -9 -53 -24 -59 -33 -34 -41 10 -113 80 -132 63 -17 100 -65 147 -188
23 -58 45 -116 50 -129 31 -73 342 -118 468 -67 26 11 63 40 96 76 29 33 56
59 60 59 18 0 -54 -107 -101 -150 -78 -71 -143 -93 -263 -88 -147 6 -269 64
-406 192 -125 115 -243 320 -260 449 -8 61 68 518 84 503 2 -3 11 -47 18 -98z
m1061 -88 c-8 -151 -73 -251 -173 -266 -27 -4 -54 -3 -63 3 -46 29 -5 165 63
212 53 37 131 121 141 151 7 23 8 23 22 4 11 -14 14 -39 10 -104z m164 100
c10 -6 19 -20 19 -31 0 -44 -77 -159 -107 -159 -14 0 -15 12 -9 81 4 45 11 90
17 100 11 21 49 25 80 9z m-796 -109 c3 -10 14 -26 25 -36 18 -16 21 -16 53 4
42 26 96 27 145 2 36 -18 37 -18 56 0 11 11 25 19 33 19 18 0 16 -72 -5 -140
-16 -50 -20 -55 -49 -58 -21 -2 -50 7 -85 27 -37 21 -61 28 -81 24 -16 -3 -46
3 -76 16 -28 11 -61 21 -75 21 -64 0 -74 81 -16 133 24 22 35 25 50 17 10 -5
21 -18 25 -29z m845 -231 c-37 -170 -156 -272 -314 -272 -108 0 -211 52 -237
121 -21 54 23 95 69 63 94 -65 168 -53 318 54 83 59 159 160 166 221 1 10 4
-16 6 -57 2 -41 -2 -100 -8 -130z m-4649 -657 c138 -203 459 -452 806 -626 89
-45 94 -49 187 -166 79 -99 104 -124 154 -151 65 -34 122 -84 122 -106 0 -21
-26 -17 -68 11 -44 29 -100 49 -161 59 -42 6 -43 6 -36 -16 18 -59 17 -76 -4
-88 -62 -33 -200 -16 -279 34 -46 29 -109 99 -137 152 -11 21 -58 74 -104 119
-46 44 -142 150 -215 236 -323 383 -326 387 -326 470 0 49 15 119 25 119 2 0
19 -21 36 -47z m463 -102 c178 -98 474 -211 806 -307 85 -25 155 -46 156 -47
0 -1 36 -46 78 -99 42 -54 74 -98 71 -98 -4 0 -72 35 -153 79 -138 74 -153 79
-241 91 -300 39 -575 170 -793 378 -44 42 -94 94 -111 116 l-32 41 64 -52 c35
-28 105 -74 155 -102z m-4404 -271 c46 -24 69 -62 77 -130 7 -63 -1 -92 -38
-134 -35 -41 -97 -81 -107 -71 -4 3 -10 64 -13 133 -4 98 -10 138 -27 175
l-21 47 45 0 c25 0 62 -9 84 -20z m8495 -670 c13 -22 17 -118 6 -152 -12 -37
-66 -96 -78 -85 -12 13 -9 201 5 225 13 23 56 31 67 12z m-176 -690 c10 -5 29
-33 41 -62 33 -74 32 -184 0 -252 -28 -58 -83 -116 -110 -116 -19 0 -20 8 -20
181 0 179 4 202 38 242 17 20 26 21 51 7z m-576 -120 c33 -26 84 -128 92 -184
11 -69 -10 -124 -66 -178 -27 -27 -56 -48 -64 -48 -8 0 -25 19 -39 43 -28 48
-86 214 -86 246 0 29 46 118 67 130 28 17 68 13 96 -9z m-596 -12 c30 -34 43
-82 43 -163 0 -106 -40 -198 -107 -249 -24 -17 -25 -17 -39 1 -23 30 -53 142
-64 237 -9 82 -8 92 11 126 39 68 116 92 156 48z m-442 -10 c-2 -13 -9 -75
-15 -138 -6 -63 -13 -117 -16 -119 -19 -20 -87 84 -98 149 -12 76 29 129 102
130 28 0 32 -3 27 -22z"/>
</g>
</svg>
